<?xml version="1.0" encoding="UTF-8" standalone="no"?>
<svg width="40px" height="40px" viewBox="0 0 40 40" version="1.1" xmlns="http://www.w3.org/2000/svg" xmlns:xlink="http://www.w3.org/1999/xlink" xmlns:sketch="http://www.bohemiancoding.com/sketch/ns">
    <defs></defs>
            <g id="arrow" sketch:type="MSLayerGroup" transform="translate(20.000000, 20.000000) scale(1, -1) rotate(-180.000000) translate(-20.000000, -20.000000) ">
                <path d="M0,20 C0,31.0472 8.9544,40 20,40 C31.0448,40 40,31.0472 40,20 C40,8.9552 31.0448,0 20,0 C8.9544,0 0,8.9552 0,20 L0,20 Z M38.4,20 C38.4,30.1464 30.1448,38.4 20,38.4 C9.8528,38.4 1.6,30.1464 1.6,20 C1.6,9.8544 9.8528,1.6 20,1.6 C30.1448,1.6 38.4,9.8544 38.4,20 L38.4,20 Z" id="Fill-1" sketch:type="MSShapeGroup" fill="currentColor"></path>
                <path d="M11.1098039,20.3866667 L10,21.4956863 L19.5396078,31.0337255 L29.0768627,21.4956863 L27.9678431,20.3866667 L20.3239216,28.0313725 L20.3239216,9 L18.7552941,9 L18.7552941,28.0313725 L11.1098039,20.3866667" id="Fill-2" sketch:type="MSShapeGroup" fill="currentColor"></path>
            </g>
</svg>