<?xml version="1.0" encoding="UTF-8" standalone="no"?>
<svg width="40px" height="40px" viewBox="0 0 40 40" version="1.1" xmlns="http://www.w3.org/2000/svg" xmlns:xlink="http://www.w3.org/1999/xlink" xmlns:sketch="http://www.bohemiancoding.com/sketch/ns">
    <defs></defs>
    <g id="arrow-9">
        <path d="M19.9667797,39.7262745 C30.8245122,39.7262745 39.6237653,30.947451 39.6237653,20.1184314 C39.6237653,9.29019608 30.8245122,0.510588235 19.9667797,0.510588235 C9.11140597,0.510588235 0.309794093,9.29019608 0.309794093,20.1184314 C0.309794093,30.947451 9.11140597,39.7262745 19.9667797,39.7262745 L19.9667797,39.7262745 L19.9667797,39.7262745 Z M19.9667797,2.07921569 C29.9391616,2.07921569 38.0512064,10.172549 38.0512064,20.1184314 C38.0512064,30.0666667 29.9391616,38.1576471 19.9667797,38.1576471 C9.99518404,38.1576471 1.88235294,30.0666667 1.88235294,20.1184314 C1.88235294,10.172549 9.99518404,2.07921569 19.9667797,2.07921569 L19.9667797,2.07921569 L19.9667797,2.07921569 Z" id="Fill-1"  fill="currentColor"></path>
        <path d="M20.3363311,29.3678431 L21.4481301,30.4776471 L31.0100742,20.9380392 L21.4481301,11.4007843 L20.3363311,12.5098039 L28.0001965,20.1537255 L8.92112635,20.1537255 L8.92112635,21.7223529 L28.0001965,21.7223529 L20.3363311,29.3678431" id="Fill-2"  fill="currentColor"></path>
    </g>
</svg>