<?xml version="1.0" encoding="UTF-8" standalone="no"?>
<svg width="40px" height="40px" viewBox="0 0 40 40" version="1.1" xmlns="http://www.w3.org/2000/svg" xmlns:xlink="http://www.w3.org/1999/xlink" xmlns:sketch="http://www.bohemiancoding.com/sketch/ns">
    <defs></defs>
    <g id="Artboard-1" sketch:type="MSArtboardGroup">
        <path d="M39.9353574,34.739 L37.4533574,24.801 C37.4173574,24.647 37.3533574,24.5 37.2813574,24.364 C37.4263574,23.972 37.4993574,23.546 37.4993574,23.1 L37.4993574,6.728 C37.4983574,4.673 35.8253574,3 33.7703574,3 L6.24235743,3 C4.18735743,3 2.51435743,4.673 2.51435743,6.728 L2.51435743,23.11 C2.51435743,23.555 2.59635743,23.973 2.73235743,24.374 C2.66035743,24.51 2.59635743,24.655 2.56035743,24.811 L0.0503574311,34.829 C-0.0766425689,35.329 0.0413574311,35.856 0.350357431,36.267 C0.668357431,36.675 1.15035743,36.912 1.66835743,36.912 L38.3253574,36.912 C39.2433574,36.912 39.9983574,36.167 39.9983574,35.24 C40.0073574,35.057 39.9803574,34.893 39.9353574,34.739 L39.9353574,34.739 Z M24.2333574,34.284 L24.2333574,34.284 L15.7783574,34.284 C15.6773574,34.284 15.5873574,34.239 15.5233574,34.165 C15.4603574,34.093 15.4323574,33.993 15.4503574,33.894 L16.1143574,30.24 C16.1413574,30.085 16.2783574,29.967 16.4423574,29.967 L23.5883574,29.967 C23.7523574,29.967 23.8883574,30.085 23.9153574,30.24 L24.5523574,33.867 C24.5613574,33.894 24.5613574,33.922 24.5613574,33.957 C24.5703574,34.138 24.4163574,34.284 24.2333574,34.284 L24.2333574,34.284 Z M34.2433574,23.11 C34.2433574,23.301 34.1343574,23.465 33.9713574,23.538 L6.05135743,23.538 C5.88735743,23.466 5.77835743,23.302 5.77835743,23.11 L5.77835743,6.728 C5.77835743,6.464 5.98735743,6.255 6.25135743,6.255 L33.7803574,6.255 C34.0443574,6.255 34.2533574,6.464 34.2533574,6.728 L34.2433574,23.11 L34.2433574,23.11 Z" id="Shape" sketch:type="MSShapeGroup" fill="currentColor"></path>
    </g>
</svg>