<?xml version="1.0" encoding="UTF-8" standalone="no"?>
<svg width="40px" height="40px" viewBox="0 0 40 40" version="1.1" xmlns="http://www.w3.org/2000/svg" xmlns:xlink="http://www.w3.org/1999/xlink" xmlns:sketch="http://www.bohemiancoding.com/sketch/ns">
    <!-- Generator: Sketch 3.2.2 (9983) - http://www.bohemiancoding.com/sketch -->
    <title>v</title>
    <desc>Created with Sketch.</desc>
    <defs></defs>
    <g id="email" sketch:type="MSLayerGroup" transform="translate(0.000000, 7.000000)">
        <path d="M20.0501961,16.1877512 L20.0587582,16.1877512 C20.3603922,16.1877512 20.6584967,16.0995732 20.8996732,15.939022 L20.965098,15.896678 C20.9793464,15.8873268 20.9942484,15.8788317 21.0092157,15.8687561 L21.7711765,15.2335976 L39.9580392,0.112017073 C39.9203922,0.0596634146 39.8562745,0.0238390244 39.7879739,0.0238390244 L0.21130719,0.0238390244 C0.162222222,0.0238390244 0.116666667,0.0417512195 0.0803921569,0.0718463415 L19.1081699,15.8736951 C19.3479739,16.0737585 19.6901307,16.1877512 20.0501961,16.1877512 L20.0501961,16.1877512 Z M0,2.16651951 L0,24.5811293 L13.630719,13.4866976 L0,2.16651951 L0,2.16651951 Z M26.3835294,13.5619683 L40,24.5868585 L40,2.24106585 L26.3835294,13.5619683 L26.3835294,13.5619683 Z M22.0543137,17.1604756 C21.5115033,17.6092024 20.8015033,17.8565488 20.0558824,17.8565488 C19.307451,17.8565488 18.5981046,17.6106512 18.056732,17.1640317 L14.9348366,14.5697927 L0,26.7238098 L0,26.7624659 C0,26.8779073 0.0981699346,26.9760951 0.214117647,26.9760951 L39.7886928,26.9760951 C39.9024837,26.9760951 39.9999346,26.8779073 39.9999346,26.7617415 L39.9999346,26.7259171 L25.0779739,14.6458537 L22.0543137,17.1604756 L22.0543137,17.1604756 Z" id="Shape" sketch:type="MSShapeGroup" fill="currentColor"></path>
    </g>
</svg>