<?xml version="1.0" encoding="UTF-8" standalone="no"?>
<svg width="40px" height="40px" viewBox="0 0 40 40" version="1.1" xmlns="http://www.w3.org/2000/svg" xmlns:xlink="http://www.w3.org/1999/xlink" xmlns:sketch="http://www.bohemiancoding.com/sketch/ns">
    <defs></defs>
    <g id="Artboard-1" sketch:type="MSArtboardGroup">
        <path d="M20.500675,0 C13.044625,0 7,5.9711343 7,13.3335555 C7,15.7654745 7.66285,18.0380654 8.813725,20.0006666 L20.5,40 L32.18695,20.0006666 C33.337825,18.0380654 34,15.7654745 34,13.3335555 C34,5.9711343 27.955375,0 20.500675,0 L20.500675,0 Z M17.125,13.3335555 C17.125,11.4949502 18.637,10.0016666 20.500675,10.0016666 C22.36435,10.0016666 23.875,11.4949502 23.875,13.3335555 C23.875,15.1748275 22.36435,16.6661111 20.500675,16.6661111 C18.637,16.6661111 17.125,15.1748275 17.125,13.3335555 Z" id="Imported-Layers" sketch:type="MSShapeGroup" fill="currentColor"></path>
    </g>
</svg>