<svg width="40" height="40" viewBox="0 0 40 40" xmlns="http://www.w3.org/2000/svg"><path d="M39.98 31.56c.085.65-.112 1.216-.592 1.694l-5.632 5.59c-.254.283-.586.523-.995.72-.41.196-.81.323-1.206.38-.028 0-.113.008-.254.02-.14.014-.325.022-.55.022-.537 0-1.405-.092-2.604-.275-1.2-.182-2.668-.634-4.404-1.353-1.737-.72-3.706-1.8-5.907-3.24-2.202-1.44-4.545-3.416-7.03-5.928-1.976-1.948-3.613-3.813-4.912-5.59-1.298-1.78-2.343-3.424-3.134-4.934-.792-1.51-1.384-2.88-1.78-4.108C.586 13.33.32 12.272.178 11.382c-.142-.89-.198-1.588-.17-2.096.028-.51.042-.79.042-.847.056-.397.183-.798.38-1.208.198-.41.438-.74.72-.995L6.782.605C7.177.21 7.63.012 8.137.012c.367 0 .692.106.974.318.283.21.523.473.72.783l4.532 8.596c.253.45.324.945.21 1.48-.112.537-.352.99-.72 1.356L11.78 14.62c-.057.058-.106.15-.148.276-.042.127-.063.233-.063.318.113.593.367 1.27.762 2.032.338.678.86 1.503 1.566 2.477.706.975 1.708 2.096 3.007 3.367 1.27 1.3 2.4 2.307 3.388 3.027.988.72 1.814 1.25 2.478 1.588.663.338 1.17.543 1.524.613l.53.105c.056 0 .147-.02.274-.062.127-.04.22-.09.275-.147l2.415-2.455c.508-.453 1.1-.68 1.778-.68.48 0 .86.086 1.144.256h.042l8.172 4.828c.593.367.946.834 1.06 1.4z" fill="currentColor"/></svg>