<svg width="40" height="40" viewBox="0 0 40 40" xmlns="http://www.w3.org/2000/svg"><g fill="currentColor"><path d="M19.967 39.726c10.858 0 19.657-8.78 19.657-19.608C39.624 9.29 30.824.51 19.967.51S.31 9.29.31 20.12s8.8 19.608 19.657 19.608zm0-37.647c9.972 0 18.084 8.09 18.084 18.036 0 9.95-8.11 18.04-18.08 18.04-9.973 0-18.086-8.09-18.086-18.04 0-9.945 8.113-18.04 18.085-18.04z"/><path d="M20.336 29.368l1.112 1.11 9.562-9.54-9.562-9.537-1.112 1.11L28 20.156H8.92v1.568H28l-7.664 7.646"/></g></svg>