<svg width="40" height="40" viewBox="0 0 40 40" xmlns="http://www.w3.org/2000/svg"><title>v</title><desc>Created with Sketch.</desc><g><path d="M20.05 23.188h.01c.3 0 .598-.088.84-.25l.065-.04.044-.03.76-.634L39.96 7.112c-.038-.052-.102-.088-.17-.088H.21c-.048 0-.093.018-.13.048l19.028 15.802c.24.2.582.314.942.314zM0 9.168V31.58l13.63-11.093L0 9.167zM26.384 20.56L40 31.587V9.24L26.384 20.563zm-4.33 3.598c-.542.45-1.252.697-1.998.697-.75 0-1.458-.246-2-.693l-3.12-2.594L0 33.724v.038c0 .116.098.214.214.214H39.79c.112 0 .21-.098.21-.214v-.036l-14.922-12.08-3.024 2.514z" fill="currentColor"/></g></svg>