<svg width="40" height="40" viewBox="0 0 40 40" xmlns="http://www.w3.org/2000/svg"><title>Group</title><desc>Created with Sketch.</desc><g><g><g fill="currentColor"><path d="M21.11 22.853l-1.927-1.458c-.588-.474-1.39-1.1-1.39-2.245 0-1.15.802-1.882 1.5-2.56 2.246-1.72 4.488-3.552 4.488-7.412 0-3.97-2.562-6.058-3.79-7.05h3.314L26.784 0H16.242C13.35 0 9.18.666 6.128 3.12c-2.303 1.934-3.424 4.598-3.424 6.995 0 4.053 3.197 8.2 8.86 8.2.535 0 1.122-.05 1.71-.106-.263.628-.53 1.15-.53 2.037 0 1.6.87 2.593 1.598 3.535-2.408.16-6.907.42-10.222 2.404C.958 28.014 0 30.674 0 32.552 0 36.417 3.727 40 11.523 40c9.203 0 14.075-4.96 14.075-9.864.012-3.582-2.147-5.368-4.472-7.28h-.016v-.003zm-7.01-6.005c-4.603 0-6.688-5.794-6.688-9.29 0-1.36.266-2.766 1.177-3.865.857-1.044 2.352-1.723 3.748-1.723 4.438 0 6.728 5.845 6.728 9.605 0 .943-.106 2.607-1.336 3.814-.85.845-2.273 1.458-3.628 1.462v-.004zm.053 21.018c-5.724 0-9.417-2.666-9.417-6.375 0-3.705 3.422-4.958 4.602-5.373 2.246-.736 5.137-.838 5.62-.838.534 0 .822 0 1.21.05 4.07 2.83 5.86 4.244 5.86 6.895-.004 3.188-2.745 5.638-7.877 5.614l.002.026zM34.628 16.754V11.57h-2.665v5.184h-5.32v2.637h5.32v5.233h2.665V19.39H40v-2.636h-5.372z"/></g></g></g></svg>