<svg width="40" height="40" viewBox="0 0 40 40" xmlns="http://www.w3.org/2000/svg"><path d="M35.386 16.922h-3.483c.254.984.404 2.014.404 3.077 0 6.797-5.51 12.306-12.307 12.306-6.797 0-12.307-5.51-12.307-12.308 0-1.064.15-2.094.404-3.078H4.615v16.924c0 .848.69 1.537 1.54 1.537h27.69c.852 0 1.54-.69 1.54-1.536V16.922zm0-10.77c0-.848-.69-1.537-1.54-1.537h-4.614c-.85 0-1.54.69-1.54 1.538v4.616c0 .847.69 1.537 1.54 1.537h4.614c.85 0 1.54-.69 1.54-1.54V6.154zM20 12.31c-4.25 0-7.692 3.443-7.692 7.69 0 4.25 3.443 7.694 7.692 7.694 4.25 0 7.693-3.445 7.693-7.693 0-4.25-3.444-7.69-7.693-7.69zM35.386 40H4.616C2.066 40 0 37.933 0 35.383V4.615C0 2.065 2.066 0 4.615 0h30.77C37.935 0 40 2.066 40 4.615v30.768C40 37.933 37.934 40 35.386 40z" fill="currentColor"/></svg>