<svg width="40" height="40" viewBox="0 0 40 40" xmlns="http://www.w3.org/2000/svg"><path d="M39.98 31.56c.085.65-.112 1.216-.592 1.694l-5.632 5.59c-.254.283-.586.523-.995.72-.41.196-.81.323-1.203.38-.028 0-.113.008-.254.02-.14.014-.324.022-.55.022-.536 0-1.404-.092-2.603-.275-1.2-.18-2.67-.63-4.405-1.35-1.737-.72-3.706-1.8-5.907-3.24-2.202-1.44-4.545-3.416-7.03-5.93-1.976-1.946-3.613-3.81-4.912-5.59-1.298-1.78-2.343-3.422-3.134-4.932-.792-1.51-1.384-2.88-1.78-4.108-.394-1.23-.66-2.287-.802-3.177-.142-.89-.198-1.588-.17-2.096.028-.51.042-.79.042-.847.056-.398.183-.8.38-1.21.198-.41.438-.74.72-.994l5.63-5.63C7.177.21 7.63.01 8.137.01c.367 0 .692.106.974.318.286.21.526.473.72.783l4.535 8.598c.253.45.324.944.21 1.48-.112.536-.352.99-.72 1.355L11.78 14.62c-.057.058-.106.15-.148.276-.042.127-.063.233-.063.318.11.593.364 1.27.76 2.032.34.678.86 1.503 1.565 2.477.706.975 1.708 2.096 3.007 3.367 1.27 1.3 2.4 2.307 3.388 3.027.99.72 1.815 1.25 2.48 1.588.662.338 1.17.543 1.523.613l.53.105c.056 0 .147-.02.274-.062.127-.04.22-.09.275-.144l2.415-2.455c.508-.453 1.1-.68 1.778-.68.48 0 .86.086 1.144.256h.04l8.172 4.828c.593.367.946.834 1.06 1.4z" fill="currentColor"/></svg>