<svg width="40" height="40" viewBox="0 0 40 40" xmlns="http://www.w3.org/2000/svg"><path d="M40 7.32c-1.386.65-2.97 1.08-4.752 1.297 1.584-1.08 2.97-2.808 3.564-4.97-1.584 1.08-3.366 1.73-5.15 2.162C32.278 4.08 30.1 3 27.722 3c-5.147 0-9.107 5.4-7.92 10.802C13.07 13.37 7.13 9.914 2.97 4.512c-2.178 3.89-1.188 9.29 2.575 11.883-1.387 0-2.575-.432-3.763-1.08 0 4.105 2.574 7.994 6.535 8.858-1.188.432-2.376.432-3.763.216.99 3.455 3.96 6.047 7.525 6.047C8.71 33.463 4.354 34.757 0 34.11 3.564 36.705 7.92 38 12.475 38c15.05 0 23.565-13.827 23.17-26.358 1.98-1.08 3.167-2.593 4.355-4.32z" fill="currentColor"/></svg>