<?xml version="1.0" encoding="utf-8"?>
<!-- Generator: Adobe Illustrator 15.1.0, SVG Export Plug-In . SVG Version: 6.00 Build 0)  -->
<!DOCTYPE svg PUBLIC "-//W3C//DTD SVG 1.1//EN" "http://www.w3.org/Graphics/SVG/1.1/DTD/svg11.dtd">
<svg version="1.1" id="Calque_1" xmlns="http://www.w3.org/2000/svg" xmlns:xlink="http://www.w3.org/1999/xlink" x="0px" y="0px"
	 width="22px" height="35px" viewBox="0 0 22 35" enable-background="new 0 0 22 35" xml:space="preserve">
<g>
	<path fill="#DA691E" d="M12.222,2.455c-5.398,0-9.778,4.401-9.778,9.825c0,1.538,0.353,2.991,0.979,4.289
		C5.008,19.845,12.222,35,12.222,35s7.24-15.167,8.821-18.464C21.655,15.25,22,13.804,22,12.279C22,6.855,17.625,2.455,12.222,2.455
		z M12.222,15.965c-2.024,0-3.666-1.652-3.666-3.686s1.642-3.683,3.666-3.683c2.025,0,3.67,1.649,3.67,3.683
		S14.247,15.965,12.222,15.965z"/>
	<path fill="#FE7B23" d="M9.779,0C4.38,0,0,4.4,0,9.824c0,1.536,0.35,2.991,0.978,4.285c1.582,3.28,8.801,18.436,8.801,18.436
		s7.241-15.171,8.813-18.464c0.618-1.289,0.965-2.731,0.965-4.257C19.557,4.4,15.182,0,9.779,0z M9.779,13.51
		c-2.025,0-3.666-1.652-3.666-3.686c0-2.035,1.641-3.683,3.666-3.683c2.024,0,3.668,1.647,3.668,3.683
		C13.447,11.858,11.803,13.51,9.779,13.51z"/>
</g>
</svg>
