<svg xmlns="http://www.w3.org/2000/svg" width="22" height="35" viewBox="0 0 22 35"><path fill="#DA691E" d="M12.222 2.455c-5.398 0-9.778 4.4-9.778 9.825 0 1.538.353 2.99.98 4.29C5.007 19.844 12.22 35 12.22 35s7.24-15.167 8.82-18.464c.613-1.286.958-2.732.958-4.257 0-5.427-4.375-9.827-9.778-9.827zm0 13.51c-2.024 0-3.666-1.652-3.666-3.686s1.642-3.686 3.666-3.686c2.025 0 3.67 1.65 3.67 3.683s-1.645 3.685-3.67 3.685z"/><path fill="#FE7B23" d="M9.78 0C4.38 0 0 4.4 0 9.824c0 1.536.35 2.99.978 4.285 1.582 3.28 8.8 18.433 8.8 18.433l8.814-18.464c.618-1.29.965-2.73.965-4.257C19.557 4.4 15.182 0 9.78 0zm0 13.51c-2.026 0-3.667-1.652-3.667-3.686 0-2.035 1.64-3.683 3.666-3.683 2.02 0 3.665 1.65 3.665 3.686 0 2.034-1.644 3.686-3.668 3.686z"/></svg>